<svg xmlns="http://www.w3.org/2000/svg" width="128" height="128" fill="none"><path fill="#F9F8FE" d="M63.8 5c-2.1.2-4.4.8-6.6 1.5C55 7.3 53 8.2 51.4 9a557 557 0 0 0-17 8.4c-7.7 4-15.9 8.3-19.2 10.7-4 2.9-5.4 7.1-6 11.5-.5 4.4 0 8.9 0 12.2-.1 2.4-.6 11-.7 19.7-.1 8.8 0 17.8 1.4 21.1a19 19 0 0 0 6.2 8.2 51 51 0 0 0 9.1 5.4c3.1 1.5 10.8 5.7 18.8 9.5 8 3.7 16.4 7 20.9 6.8 4-.1 8.9-1.7 12-3.2 9.7-4.5 19-9.4 28.4-14.1 6.5-3.3 11.5-7.3 13.4-15 1.8-7.6 1.8-45.6.6-53.3-1-6.3-9.3-11.5-16-14.8C97.2 19 73.3 4.6 63.9 5Z"/><path fill="#C1C2D3" d="M66.2 69c0-5.9 4.2-12.7 9.4-15.3l35.2-17.5c4-2 7.2 0 7.2 4.4v46c0 6.2-4.4 13.3-9.8 16l-33 16.4c-5 2.5-9 0-9-5.5V68.9Z"/><path fill="#D8DDEB" d="M10.8 40.3c0-4.2 3-6 6.7-4.2L53 53.9c5.2 2.6 9.4 9.4 9.4 15.2v44.3c0 5.7-4 8.2-9.1 5.7l-32.8-16.4a19.4 19.4 0 0 1-9.9-15.9V40.3Z"/><path fill="#F2F1F8" d="m73.5 7.2 36 18c5.3 2.6 5.3 7 0 9.6l-35.9 18a24.1 24.1 0 0 1-19.1 0l-36-18c-5.3-2.7-5.3-7 0-9.6l35.9-18a24.1 24.1 0 0 1 19.1 0Z"/><path stroke="#fff" stroke-linecap="round" stroke-linejoin="round" stroke-width="2.7" d="m81 47.1-3.9 2m-4 2h-.3c-.5.4-1.2.6-1.9.9"/><path stroke="#939BAC" stroke-linecap="round" stroke-linejoin="round" stroke-width="4.5" d="M63.8 5c-2.1.2-4.4.8-6.6 1.5C55 7.3 53 8.2 51.4 9a557 557 0 0 0-17 8.4c-7.7 4-15.9 8.3-19.2 10.7-4 2.9-5.4 7.1-6 11.5-.5 4.4 0 8.9 0 12.2-.1 2.4-.6 11-.7 19.7-.1 8.8 0 17.8 1.4 21.1a19 19 0 0 0 6.2 8.2 51 51 0 0 0 9.1 5.4c3.1 1.5 10.8 5.7 18.8 9.5 8 3.7 16.4 7 20.9 6.8 4-.1 8.9-1.7 12-3.2 9.7-4.5 19-9.4 28.4-14.1 6.5-3.3 11.5-7.3 13.4-15 1.8-7.6 1.8-45.6.6-53.3-1-6.3-9.3-11.5-16-14.8C97.2 19 73.3 4.6 63.9 5Z"/><path fill="#E72525" d="M36.5 85.2c-3.3-1.7-6-6.3-6-10.3 0-4 2.7-6 6-4.4 3.3 1.7 6 6.3 6 10.4 0 4-2.7 6-6 4.3Z"/><path fill="#191919" d="M79 75.7c3.3-1.6 6-6.3 6-10.3 0-4-2.7-6-6-4.3-3.3 1.6-6 6.2-6 10.3 0 4 2.7 6 6 4.3ZM105.3 94.8c3.3-1.7 6-6.3 6-10.3 0-4-2.7-6-6-4.4-3.3 1.6-6 6.3-6 10.3 0 4 2.7 6 6 4.4ZM85 97.6c0-4-2.7-6-6-4.4-3.3 1.7-6 6.3-6 10.4 0 4 2.7 6 6 4.3 3.3-1.6 6-6.3 6-10.3ZM111.3 52.3c0-4.1-2.7-6-6-4.4-3.3 1.7-6 6.3-6 10.3 0 4 2.7 6 6 4.4 3.3-1.7 6-6.3 6-10.3ZM92 85.2c3.4-1.7 6-6.3 6-10.3 0-4-2.6-6-6-4.4-3.2 1.7-6 6.3-6 10.4 0 4 2.8 6 6 4.3ZM97.1 27.7c3 1.9 2.5 4.5-1.1 6a15 15 0 0 1-12-.5c-3-1.9-2.4-4.5 1.2-6a15 15 0 0 1 12 .5ZM70.5 40.3c3 1.8 2.4 4.5-1.2 6a15 15 0 0 1-12-.6c-2.9-1.8-2.4-4.5 1.2-6a15 15 0 0 1 12 .6ZM71.6 16c3 1.9 2.5 4.6-1.1 6a15 15 0 0 1-12-.5c-3-1.8-2.4-4.5 1.2-6a15 15 0 0 1 12 .6ZM45.2 26.4c3 1.8 2.5 4.5-1.1 6a15 15 0 0 1-12-.6c-3-1.8-2.5-4.5 1.1-6a15 15 0 0 1 12 .6Z"/><path stroke="#fff" stroke-linecap="round" stroke-linejoin="round" stroke-opacity=".3" stroke-width="3.1" d="M90.2 28.6s1.5 0 3 .4M63.6 41.1s1.5 0 3 .5m-1.9-24.7s1.5 0 3 .5m-29.4 9.8s1.5 0 3 .5m40.9 39s0 1.4-1 2.8m27-15.3s0 1.5-1 2.9m-25 41.8s0 1.5-1 2.9m27-15.3s0 1.4-1 2.8m-12-12.8s0 1.5-1 2.9M34 76.9s0 1.5 1 2.9"/></svg>