<svg xmlns="http://www.w3.org/2000/svg" width="128" height="128" fill="none"><path fill="#F9F8FE" d="M63.8 5c-2.1.2-4.4.8-6.6 1.5C55 7.3 53 8.2 51.4 9a557 557 0 0 0-17 8.4c-7.7 4-15.9 8.3-19.2 10.7-4 2.9-5.4 7.1-6 11.5-.5 4.4 0 8.9 0 12.2-.1 2.4-.6 11-.7 19.7-.1 8.8 0 17.8 1.4 21.1a19 19 0 0 0 6.2 8.2 51 51 0 0 0 9.1 5.4c3.1 1.5 10.8 5.7 18.8 9.5 8 3.7 16.4 7 20.9 6.8 4-.1 8.9-1.7 12-3.2 9.7-4.5 19-9.4 28.4-14.1 6.5-3.3 11.5-7.3 13.4-15 1.8-7.6 1.8-45.6.6-53.3-1-6.3-9.3-11.5-16-14.8C97.2 19 73.3 4.6 63.9 5Z"/><path fill="#C1C2D3" d="M66.2 69c0-5.9 4.2-12.7 9.4-15.3l35.2-17.5c4-2 7.2 0 7.2 4.4v46c0 6.2-4.4 13.3-9.8 16l-33 16.4c-5 2.5-9 0-9-5.5V68.9Z"/><path fill="#D8DDEB" d="M10.8 40.3c0-4.2 3-6 6.7-4.2L53 53.9c5.2 2.6 9.4 9.4 9.4 15.2v44.3c0 5.7-4 8.2-9.1 5.7l-32.8-16.4a19.4 19.4 0 0 1-9.9-15.9V40.3Z"/><path fill="#F2F1F8" d="m73.5 7.2 36 18c5.3 2.6 5.3 7 0 9.6l-35.9 18a24.1 24.1 0 0 1-19.1 0l-36-18c-5.3-2.7-5.3-7 0-9.6l35.9-18a24.1 24.1 0 0 1 19.1 0Z"/><path stroke="#fff" stroke-linecap="round" stroke-linejoin="round" stroke-width="2.7" d="m81 47.1-3.9 2m-4 2h-.3c-.5.4-1.2.6-1.9.9"/><path stroke="#939BAC" stroke-linecap="round" stroke-linejoin="round" stroke-width="4.5" d="M63.8 5c-2.1.2-4.4.8-6.6 1.5C55 7.3 53 8.2 51.4 9a557 557 0 0 0-17 8.4c-7.7 4-15.9 8.3-19.2 10.7-4 2.9-5.4 7.1-6 11.5-.5 4.4 0 8.9 0 12.2-.1 2.4-.6 11-.7 19.7-.1 8.8 0 17.8 1.4 21.1a19 19 0 0 0 6.2 8.2 51 51 0 0 0 9.1 5.4c3.1 1.5 10.8 5.7 18.8 9.5 8 3.7 16.4 7 20.9 6.8 4-.1 8.9-1.7 12-3.2 9.7-4.5 19-9.4 28.4-14.1 6.5-3.3 11.5-7.3 13.4-15 1.8-7.6 1.8-45.6.6-53.3-1-6.3-9.3-11.5-16-14.8C97.2 19 73.3 4.6 63.9 5Z"/><path fill="#191919" d="M85 65.3c0 4.1-2.6 8.7-6 10.4-3.2 1.7-5.9-.3-5.9-4.4 0-4 2.7-8.6 6-10.3 3.3-1.6 6 .3 6 4.3ZM111.3 84.4c0 4-2.6 8.7-6 10.3-3.3 1.7-6-.2-6-4.3 0-4 2.8-8.7 6-10.3 3.4-1.7 6 .3 6 4.3ZM105.4 62.5c-3.4 1.7-6-.3-6-4.3s2.6-8.7 6-10.3c3.3-1.7 6 .3 6 4.3s-2.7 8.7-6 10.3ZM79 107.9c-3.2 1.6-5.9-.3-5.9-4.3 0-4.1 2.7-8.7 6-10.4 3.3-1.6 6 .3 6 4.4 0 4-2.7 8.6-6 10.3ZM43.6 65.4c0 4 2.7 8.7 6 10.3 3.3 1.7 6-.3 6-4.3 0-4.1-2.7-8.7-6-10.4-3.3-1.6-6 .3-6 4.4ZM17.3 84.4c0 4 2.7 8.7 6 10.4 3.3 1.6 6-.3 6-4.4 0-4-2.7-8.7-6-10.3-3.3-1.7-6 .3-6 4.3ZM23.3 62.6c3.3 1.6 6-.3 6-4.4 0-4-2.7-8.6-6-10.3-3.3-1.7-6 .3-6 4.3s2.7 8.7 6 10.4ZM49.6 107.9c3.3 1.6 6-.3 6-4.3s-2.7-8.7-6-10.4c-3.3-1.6-6 .3-6 4.4 0 4 2.7 8.6 6 10.3ZM30.5 74.9c0 4 2.7 8.6 6 10.3 3.3 1.6 6-.3 6-4.4 0-4-2.7-8.7-6-10.3-3.3-1.7-6 .3-6 4.4Z"/><path fill="#E72525" d="M56 30.1c-.3-2.3 3.2-4.3 8-4.4 4.6-.2 8.6 1.6 8.9 4 .3 2.3-3.3 4.3-8 4.4-4.6.2-8.6-1.6-9-4Z"/><path stroke="#fff" stroke-linecap="round" stroke-linejoin="round" stroke-opacity=".3" stroke-width="3.1" d="M61.8 28.8s2.8-.6 5.1.2m15.3 37.6s0 1.5-1 2.9m27-15.3s0 1.5-1 2.9m-25 41.8s0 1.5-1 2.8m27-15.2s0 1.4-1 2.8m-60.5 9.4s0 1.4.9 2.8M20.3 86.2s.2 1.5 1 2.9m25.4-22.5s0 1.5.9 2.9M20.3 54.2s.2 1.5 1 2.9M34 76.9s0 1.5 1 2.9"/></svg>