<svg version="1.2" xmlns="http://www.w3.org/2000/svg" viewBox="0 0 24 24" width="24" height="24"><style>.a{fill:#fff}</style><path class="a" d="m4.8 21v-9.9h-1.8v-5.4h4.7q-0.1-0.2-0.2-0.4 0-0.3 0-0.5 0-1.1 0.8-1.9 0.8-0.8 1.9-0.8 0.5 0 1 0.2 0.4 0.2 0.8 0.5 0.4-0.3 0.8-0.5 0.5-0.2 1-0.2 1.1 0 1.9 0.8 0.8 0.8 0.8 1.9 0 0.2 0 0.5-0.1 0.2-0.2 0.4h4.7v5.4h-1.8v9.9zm9-17.1q-0.4 0-0.6 0.3-0.3 0.2-0.3 0.6 0 0.4 0.3 0.6 0.2 0.3 0.6 0.3 0.4 0 0.6-0.3 0.3-0.2 0.3-0.6 0-0.4-0.3-0.6-0.2-0.3-0.6-0.3zm-4.5 0.9q0 0.4 0.3 0.6 0.2 0.3 0.6 0.3 0.4 0 0.6-0.3 0.3-0.2 0.3-0.6 0-0.4-0.3-0.6-0.2-0.3-0.6-0.3-0.4 0-0.6 0.3-0.3 0.2-0.3 0.6zm-4.5 2.7v1.8h6.3v-1.8zm6.3 11.7v-8.1h-4.5v8.1zm1.8 0h4.5v-8.1h-4.5zm6.3-9.9v-1.8h-6.3v1.8z"/></svg>