<svg version="1.2" xmlns="http://www.w3.org/2000/svg" viewBox="0 0 24 24" width="24" height="24"><style>.a{fill:#fff}</style><path class="a" d="m12 21.4q-2.4 0-4.4-1.1-2-1.1-3.2-2.9v2.3h-1.7v-5.1h5.1v1.7h-2.2q1.1 1.5 2.7 2.4 1.7 0.9 3.7 0.9 1.6 0 3-0.6 1.4-0.6 2.4-1.6 1-1 1.6-2.4 0.7-1.4 0.7-3h1.7q0 1.9-0.8 3.6-0.7 1.7-2 3-1.3 1.3-3 2-1.7 0.8-3.6 0.8zm-0.8-3.4v-1.2q-1-0.2-1.6-0.8-0.6-0.6-0.9-1.7l1.4-0.5q0.2 0.9 0.8 1.3 0.5 0.4 1.2 0.4 0.7 0 1.2-0.3 0.5-0.3 0.5-1 0-0.6-0.5-1-0.5-0.4-1.9-0.9-1.2-0.4-1.8-1.1-0.6-0.6-0.6-1.6 0-0.9 0.6-1.6 0.6-0.7 1.7-0.9v-1h1.5v1q0.7 0.1 1.4 0.6 0.6 0.6 0.8 1.3l-1.3 0.6q-0.2-0.5-0.6-0.8-0.4-0.4-1.1-0.4-0.7 0-1.1 0.3-0.4 0.4-0.4 0.9 0 0.6 0.5 0.9 0.5 0.3 1.8 0.7 1.5 0.6 2 1.3 0.5 0.8 0.5 1.7 0 0.6-0.2 1.1-0.2 0.4-0.6 0.7-0.3 0.4-0.8 0.6-0.4 0.2-1 0.3v1.1zm-8.6-6q0-1.9 0.8-3.6 0.7-1.7 2-3 1.3-1.3 3-2 1.7-0.7 3.6-0.7 2.4 0 4.4 1 2 1.1 3.2 2.9v-2.2h1.7v5.1h-5.1v-1.7h2.1q-1-1.6-2.6-2.5-1.7-0.9-3.7-0.9-1.6-0.1-3 0.6-1.4 0.6-2.4 1.6-1.1 1-1.7 2.4-0.6 1.4-0.6 3z"/></svg>