<svg version="1.2" xmlns="http://www.w3.org/2000/svg" viewBox="0 0 24 24" width="24" height="24"><style>.a{fill:#fff}</style><path class="a" d="m1 20v-2.8q0-0.8 0.4-1.6 0.5-0.7 1.2-1.1 1.6-0.7 3.1-1.1 1.7-0.4 3.3-0.4 1.7 0 3.3 0.4 1.6 0.4 3.1 1.1 0.7 0.4 1.2 1.1 0.4 0.8 0.4 1.6v2.8zm18 0v-3q0-1.1-0.6-2.1-0.6-1-1.7-1.8 1.2 0.2 2.4 0.6 1.1 0.3 2.1 0.8 0.8 0.6 1.3 1.2 0.5 0.6 0.5 1.3v3zm-10-8q-1.7 0-2.8-1.2-1.2-1.2-1.2-2.8 0-1.7 1.2-2.8 1.1-1.2 2.8-1.2 1.7 0 2.8 1.2 1.2 1.1 1.2 2.8 0 1.6-1.2 2.8-1.1 1.2-2.8 1.2zm10-4q0 1.6-1.2 2.8-1.2 1.2-2.8 1.2-0.3 0-0.7-0.1-0.4 0-0.7-0.1 0.7-0.8 1-1.8 0.4-0.9 0.4-2 0-1-0.4-2-0.3-1-1-1.8 0.4-0.1 0.7-0.2 0.4 0 0.7 0 1.6 0 2.8 1.2 1.2 1.1 1.2 2.8z"/></svg>