<svg version="1.2" xmlns="http://www.w3.org/2000/svg" viewBox="0 0 24 24" width="24" height="24"><style>.a{fill:#fff}</style><path class="a" d="m19.9 7.3v-2.3h-2.3v-1.5h2.3v-2.2h1.5v2.2h2.2v1.5h-2.2v2.3zm-16.5 14.1q-0.4 0-0.7-0.3-0.3-0.3-0.3-0.7v-5.5q0-0.6 0.4-1 0.5-0.5 1.1-0.5h0.7v-4.5q0-0.7 0.4-1.1 0.4-0.4 1.1-0.4h4.5v-1.6q-0.5-0.4-0.7-0.8-0.3-0.4-0.3-1 0-0.4 0.1-0.7 0.2-0.3 0.4-0.6l1.3-1.3 1.2 1.3q0.3 0.3 0.4 0.6 0.2 0.3 0.2 0.7 0 0.6-0.3 1-0.3 0.4-0.8 0.8v1.6h4.6q0.6 0 1.1 0.4 0.4 0.4 0.4 1.1v4.5h0.7q0.6 0 1 0.5 0.5 0.4 0.5 1v5.5q0 0.4-0.3 0.7-0.3 0.3-0.7 0.3zm2.7-8h10.6v-4.5h-10.6zm-2.2 6.4h15v-4.9h-15zm15-6.5h-15zm-15 6.5h15zm2.2-6.5h10.6z"/></svg>