<svg version="1.2" xmlns="http://www.w3.org/2000/svg" viewBox="0 0 72 72" width="72" height="72"><style>.a{fill:#fff}</style><path class="a" d="m36 36q-3.8 0-6.4-2.6-2.6-2.6-2.6-6.4 0-3.8 2.6-6.4 2.6-2.6 6.4-2.6 3.8 0 6.4 2.6 2.6 2.6 2.6 6.4 0 3.8-2.6 6.4-2.6 2.6-6.4 2.6zm0-4.5q1.9 0 3.2-1.3 1.3-1.3 1.3-3.2 0-1.9-1.3-3.2-1.3-1.3-3.2-1.3-1.9 0-3.2 1.3-1.3 1.3-1.3 3.2 0 1.9 1.3 3.2 1.3 1.3 3.2 1.3zm-18 22.5v-5.7q0-2 1.3-3.6 1.3-1.5 3.2-2.5 3.2-1.6 6.5-2.4 3.4-0.8 7-0.8 3.6 0 7 0.8 3.4 0.8 6.5 2.4 1.9 1 3.2 2.5 1.3 1.6 1.3 3.6v5.7zm18-10.5q-3.6 0-7 1-3.3 1-6.5 2.9v2.1h27v-2.1q-3.1-1.9-6.5-2.9-3.4-1-7-1zm0 6h13.5-27zm-25.5 16.5q-1.8 0-3.1-1.3-1.4-1.4-1.4-3.2v-12.9h4.5v12.9h12.9v4.5zm-4.5-42.6v-12.9q0-1.8 1.4-3.2 1.3-1.3 3.1-1.3h12.9v4.5h-12.9v12.9zm42.6 42.6v-4.5h12.9v-12.9h4.5v12.9q0 1.8-1.3 3.2-1.4 1.3-3.2 1.3zm12.9-42.6v-12.9h-12.9v-4.5h12.9q1.8 0 3.2 1.4 1.3 1.3 1.3 3.1v12.9z"/></svg>