<svg version="1.2" xmlns="http://www.w3.org/2000/svg" viewBox="0 0 48 48" width="48" height="48"><style>.a{fill:#fff}</style><path class="a" d="m24 48q-5 0-9.4-1.9-4.3-1.9-7.6-5.1-3.2-3.3-5.1-7.6-1.9-4.4-1.9-9.4 0-5 1.9-9.4 1.9-4.3 5.1-7.6 3.3-3.2 7.6-5.1 4.4-1.9 9.4-1.9 5 0 9.4 1.9 4.3 1.9 7.6 5.1 3.2 3.3 5.1 7.6 1.9 4.4 1.9 9.4 0 5-1.9 9.4-1.9 4.3-5.1 7.6-3.3 3.2-7.6 5.1-4.4 1.9-9.4 1.9zm0-4.8q8 0 13.6-5.6 5.6-5.6 5.6-13.6 0-8-5.6-13.6-5.6-5.6-13.6-5.6-8 0-13.6 5.6-5.6 5.6-5.6 13.6 0 8 5.6 13.6 5.6 5.6 13.6 5.6zm-2.2-2.4h4.2v-3q3-0.5 5.2-2.3 2.2-1.8 2.2-5.4 0-2.5-1.5-4.6-1.4-2.1-5.7-3.7-3.6-1.2-5-2.1-1.4-0.9-1.4-2.4 0-1.6 1.1-2.5 1.1-0.9 3.2-0.9 1.9 0 3 1 1.1 0.9 1.6 2.3l3.8-1.6q-0.6-2.1-2.4-3.7-1.8-1.5-3.9-1.7v-3h-4.2v3q-3 0.7-4.7 2.6-1.7 2-1.7 4.5 0 2.8 1.7 4.5 1.6 1.8 5.1 3 3.8 1.4 5.3 2.5 1.5 1.1 1.5 2.8 0 2-1.4 2.9-1.5 1-3.4 1-2 0-3.5-1.3-1.6-1.2-2.3-3.7l-4 1.6q0.9 2.9 2.6 4.7 1.8 1.7 4.6 2.4z"/></svg>