<svg version="1.2" xmlns="http://www.w3.org/2000/svg" viewBox="0 0 40 40" width="40" height="40"><style>.a{fill:#fff}</style><path class="a" d="m19.4 26.3v-1.5q-1-0.1-1.6-0.7-0.7-0.6-1-1.5l1-0.4q0.3 0.8 0.9 1.2 0.5 0.4 1.3 0.4 0.9 0 1.4-0.4 0.6-0.4 0.6-1.1 0-0.8-0.5-1.2-0.5-0.4-1.8-0.9-1.3-0.4-1.9-1-0.6-0.7-0.6-1.7 0-1 0.6-1.6 0.6-0.7 1.6-0.7v-1.5h1.1v1.5q0.7 0 1.3 0.5 0.6 0.4 0.9 1.1l-1 0.4q-0.2-0.6-0.7-0.8-0.4-0.3-1-0.3-0.8 0-1.3 0.4-0.5 0.3-0.5 1 0 0.6 0.5 1.1 0.6 0.4 2 0.8 1.2 0.4 1.7 1.1 0.6 0.7 0.6 1.7 0 1.1-0.6 1.8-0.7 0.7-1.9 0.8v1.5z"/><path class="a" d="m8 34v-22.2q0-0.7 0.5-1.3 0.6-0.5 1.3-0.5h20.4q0.7 0 1.3 0.5 0.5 0.6 0.5 1.3v15.6q0 0.7-0.5 1.3-0.6 0.5-1.3 0.5h-17.4zm4-6.6h18.2v-15.6h-20.4v18zm-2.2 0v-15.6z"/></svg>