<svg version="1.2" xmlns="http://www.w3.org/2000/svg" viewBox="0 0 24 24" width="24" height="24"><style>.a{fill:#fff}</style><path class="a" d="m3 22v-16.7q0-0.5 0.4-0.9 0.4-0.4 0.9-0.4h15.4q0.5 0 0.9 0.4 0.4 0.4 0.4 0.9v11.7q0 0.6-0.4 1-0.4 0.4-0.9 0.4h-13.1zm3-5h13.6v-11.7h-15.3v13.5zm0.6-2.2h2.8l4.5-4.5q0.2-0.2 0.3-0.5 0.1-0.2 0.1-0.5 0-0.2-0.1-0.5-0.1-0.2-0.3-0.4l-0.8-0.8q-0.2-0.2-0.5-0.3-0.2-0.1-0.5-0.1-0.2 0-0.5 0-0.2 0.1-0.4 0.3l-4.6 4.5zm1.4-1.3v-0.9l2.3-2.2 0.4 0.4 0.4 0.4-2.3 2.3zm3.1 1.3h6.4v-1.3h-5.1zm1.9-5.5l-0.8-0.8zm-2.2 1.4l0.4 0.4-0.8-0.8zm-6.4 6.3v-11.7z"/></svg>