<?xml version="1.0" encoding="UTF-8"?>
<svg width="72px" height="72px" viewBox="0 0 72 72" version="1.1" xmlns="http://www.w3.org/2000/svg" xmlns:xlink="http://www.w3.org/1999/xlink">
    <title>Filled / filled_stream_crown</title>
    <g id="Filled-/-filled_stream_crown" stroke="none" fill="none" fill-rule="evenodd">
        <path d="M10.5793798,21.3515408 L22.4461242,27.5065085 C23.3919447,27.6775566 24.3643369,27.4213643 25.1079413,26.8052098 L34.6112236,12.5021245 C35.4192073,11.8326252 36.5811617,11.8326252 37.3891453,12.5021245 L46.8924276,26.8052098 C47.6360321,27.4213643 48.6084242,27.6775566 49.5542448,27.5065085 L61.4209891,21.3515408 C62.613521,21.1358757 63.7528909,21.9400986 63.965843,23.1478228 C64.0112154,23.4051449 64.0113863,23.6685576 63.9663481,23.9259399 L57.0245486,49.6650027 C56.2820716,53.9080693 48.2297454,57 36.0001845,57 C23.7706236,57 15.7182973,53.9080693 14.9758203,49.6650027 L8.03402089,23.9259399 C7.8226367,22.7179332 8.61824017,21.5651064 9.81105098,21.3510293 C10.0651955,21.3054173 10.3252947,21.3055904 10.5793798,21.3515408 Z" id="Path" fill="#FFFFFF"></path>
    </g>
</svg>