<svg version="1.2" xmlns="http://www.w3.org/2000/svg" viewBox="0 0 72 72" width="72" height="72"><style>.a{fill:#fff}</style><path class="a" d="m16.4 61.3v-5.6h39.1v5.6zm0-9.8l-3.6-22.4q-0.1 0-0.3 0-0.2 0.1-0.3 0.1-1.8 0-3-1.3-1.2-1.2-1.2-2.9 0-1.8 1.2-3 1.2-1.2 3-1.2 1.7 0 3 1.2 1.2 1.2 1.2 3 0 0.5-0.1 0.9-0.1 0.4-0.3 0.7l8.8 3.9 8.7-11.9q-0.8-0.5-1.3-1.5-0.5-0.9-0.5-1.9 0-1.8 1.3-3 1.2-1.2 2.9-1.2 1.8 0 3 1.2 1.2 1.2 1.2 3 0 1-0.5 1.9-0.5 1-1.2 1.5l8.7 11.9 8.7-3.9q-0.1-0.3-0.2-0.7-0.1-0.4-0.1-0.9 0-1.8 1.2-3 1.2-1.2 3-1.2 1.7 0 2.9 1.2 1.3 1.2 1.3 3 0 1.7-1.3 2.9-1.2 1.3-2.9 1.3-0.2 0-0.3-0.1-0.2 0-0.4 0l-3.5 22.4z"/></svg>