<svg version="1.2" xmlns="http://www.w3.org/2000/svg" viewBox="0 0 24 24" width="24" height="24"><style>.a{fill:#fff}</style><path class="a" d="m5.6 19.8v-1.8h12.6v1.8zm0-3.1l-1.2-7.2q0 0-0.1 0 0 0-0.1 0-0.5 0-0.9-0.4-0.4-0.4-0.4-1 0-0.5 0.4-0.9 0.4-0.4 0.9-0.4 0.6 0 1 0.4 0.4 0.4 0.4 0.9 0 0.2 0 0.3-0.1 0.2-0.1 0.3l2.8 1.2 2.8-3.8q-0.2-0.2-0.4-0.5-0.2-0.3-0.2-0.6 0-0.6 0.4-1 0.4-0.4 1-0.4 0.5 0 0.9 0.4 0.4 0.4 0.4 1 0 0.3-0.1 0.6-0.2 0.3-0.4 0.5l2.8 3.8 2.8-1.2q0-0.1-0.1-0.3 0-0.1 0-0.3 0-0.5 0.4-0.9 0.4-0.4 0.9-0.4 0.6 0 1 0.4 0.4 0.4 0.4 0.9 0 0.6-0.4 1-0.4 0.4-1 0.4 0 0-0.1 0 0 0-0.1 0l-1.1 7.2z"/></svg>