<svg version="1.2" xmlns="http://www.w3.org/2000/svg" viewBox="0 0 48 48" width="48" height="48"><style>.a{fill:#fff}</style><path class="a" d="m22.3 43.6h-12.3q-1.6 0-2.7-1.1-1.2-1.2-1.2-2.8v-19.6q0-1.6 1.2-2.8 1.1-1.2 2.7-1.2h2v-3.9q0-4.1 2.9-6.9 2.8-2.9 6.9-2.9 4.1 0 7 2.9 2.8 2.8 2.8 6.9v3.9h2q1.6 0 2.8 1.2 1.1 1.2 1.1 2.8v2.5q-0.9-0.3-1.8-0.4-1-0.2-2.1-0.2v-1.9h-23.6v19.6h10.4q0.4 1.2 0.8 2 0.4 0.9 1.1 1.9zm-6.4-27.5h11.8v-3.9q0-2.4-1.7-4.2-1.7-1.7-4.2-1.7-2.4 0-4.2 1.7-1.7 1.8-1.7 4.2zm17.7 29.5q-4.1 0-7-2.9-2.8-2.9-2.8-6.9 0-4.1 2.8-7 2.9-2.9 7-2.9 4.1 0 6.9 2.9 2.9 2.9 2.9 7 0 4-2.9 6.9-2.8 2.9-6.9 2.9zm3.2-5.2l1.4-1.4-3.6-3.6v-5.5h-2v6.2zm-26.8-20.3v19.7z"/></svg>