<svg version="1.2" xmlns="http://www.w3.org/2000/svg" viewBox="0 0 72 72" width="72" height="72"><style>.a{fill:#fff}</style><path class="a" d="m36 69q-8.4 0-16.2-4.9-7.8-5-12.3-11.4v10.3h-4.5v-18h18v4.5h-10.3q3.9 5.8 10.9 10.4 7.1 4.6 14.4 4.6 5.9 0 11.1-2.3 5.2-2.2 9-6.1 3.9-3.8 6.1-9 2.3-5.2 2.3-11.1h4.5q0 6.8-2.6 12.8-2.6 6-7.1 10.5-4.5 4.5-10.5 7.1-6 2.6-12.8 2.6zm-2.2-11.5v-4q-3.3-0.9-5.6-2.9-2.3-2-3.9-5.4l3.8-1.3q0.9 2.8 3.2 4.5 2.3 1.6 5.2 1.6 3 0 5-1.4 2-1.5 2-3.9 0-2.5-1.9-4.2-1.8-1.6-6.9-3.8-4.5-1.8-6.7-4-2.3-2.2-2.3-5.9 0-3.3 2.3-5.6 2.2-2.3 6-2.8v-3.9h4.1v3.9q2.9 0.3 5 1.8 2.1 1.5 3.3 4.1l-3.6 1.7q-1.1-2.1-2.7-3.1-1.7-1.1-3.9-1.1-3 0-4.7 1.4-1.6 1.3-1.6 3.6 0 2.5 1.9 3.9 1.9 1.4 6.3 3.2 5.2 2.2 7.3 4.6 2.2 2.4 2.2 6.2 0 1.9-0.7 3.4-0.6 1.6-1.9 2.7-1.2 1.2-3 1.9-1.8 0.7-4 0.9l-0.1 3.9zm-30.8-21.5q0-6.8 2.6-12.8 2.6-6 7.1-10.5 4.5-4.5 10.5-7.1 6-2.6 12.8-2.6 8.4 0 16.2 4.9 7.8 5 12.3 11.4v-10.3h4.5v18h-18v-4.5h10.3q-3.8-5.8-10.9-10.4-7-4.6-14.4-4.6-5.8 0-11 2.2-5.3 2.3-9.1 6.2-3.9 3.8-6.1 9-2.3 5.2-2.3 11.1z"/></svg>