<svg version="1.2" xmlns="http://www.w3.org/2000/svg" viewBox="0 0 24 24" width="24" height="24"><style>.a{fill:#fff}</style><path class="a" d="m20 21q-3.2 0-6.2-1.4-3.1-1.3-5.6-3.8-2.5-2.5-3.8-5.6-1.4-3-1.4-6.2 0-0.4 0.3-0.7 0.3-0.3 0.7-0.3h4.1q0.4 0 0.6 0.2 0.3 0.3 0.4 0.6l0.6 3.5q0 0.4 0 0.7-0.1 0.2-0.3 0.4l-2.4 2.5q0.5 0.9 1.2 1.8 0.7 0.8 1.5 1.7 0.8 0.7 1.6 1.4 0.9 0.6 1.8 1.2l2.4-2.4q0.2-0.2 0.5-0.3 0.4-0.1 0.7-0.1l3.5 0.7q0.4 0.1 0.6 0.4 0.2 0.3 0.2 0.6v4q0 0.5-0.3 0.8-0.3 0.3-0.7 0.3z"/></svg>