<svg version="1.2" xmlns="http://www.w3.org/2000/svg" viewBox="0 0 24 24" width="24" height="24"><style>.a{fill:#fff}</style><path class="a" d="m15 20.5h-3q-0.3 0-0.5-0.2-0.3-0.2-0.3-0.6v-4.5q0-0.3 0.3-0.5 0.2-0.2 0.5-0.2h0.7v-2.3h-6q-0.6 0-1-0.4-0.5-0.4-0.4-1.1v-3q-0.1-0.6 0.4-1 0.4-0.5 1.1-0.5h1.4v-0.7q0.1-0.3 0.3-0.5 0.2-0.3 0.5-0.3h9q0.3 0 0.5 0.3 0.2 0.2 0.2 0.5v3q0 0.3-0.2 0.5-0.2 0.2-0.5 0.2h-9q-0.3 0-0.5-0.2-0.2-0.2-0.3-0.5v-0.8h-1.4l-0.1 3h6q0.7 0 1.1 0.5 0.4 0.4 0.4 1v2.3h0.8q0.3 0 0.5 0.2 0.2 0.2 0.2 0.5v4.5q0 0.4-0.2 0.6-0.2 0.2-0.5 0.2z"/></svg>