<?xml version="1.0" encoding="UTF-8"?>
<svg width="24px" height="24px" viewBox="0 0 24 24" version="1.1" xmlns="http://www.w3.org/2000/svg" xmlns:xlink="http://www.w3.org/1999/xlink">
    <title>Icon / Filled / premium_themes</title>
    <g id="Icon-/-Filled-/-premium_themes" stroke="none" stroke-width="1" fill="none" fill-rule="evenodd">
        <path d="M8.65381112,10.7516786 L14.600547,16.5507975 C14.7950866,16.740508 14.7950866,17.0480895 14.600547,17.2378 L13.8655201,17.9545811 C13.6709805,18.1442916 13.3555695,18.1442916 13.1610299,17.9545811 C12.1129217,17.0843554 11.3456336,16.4119807 10.8591655,15.937457 C10.7682049,15.8487297 10.5422415,15.7847321 10.4567355,15.904017 L10.201902,16.2497487 L10.0193453,16.4884401 L9.83300263,16.7270352 L9.02218186,17.7460428 L8.75587192,18.0918034 L8.59549123,18.3121046 C7.91167738,19.2768629 6.91083947,19.1001271 6.35158932,18.5547593 C5.80232578,18.0191302 5.85863289,17.1049913 6.79138874,16.4035319 L6.85891507,16.3573404 C6.99427087,16.2669684 7.14265185,16.157786 7.30037755,16.0361677 L7.68363141,15.7328223 L8.38962036,15.1596258 L8.6312678,14.9665056 C8.79873654,14.8340204 8.96615336,14.7048192 9.13062469,14.5839136 C9.24335825,14.5010414 9.22165977,14.3680769 9.1319646,14.280627 L8.89532907,14.0428177 C8.55768805,13.6947027 8.13153904,13.2224438 7.61688206,12.6260412 L7.21429408,12.1554622 C7.01975448,11.9657517 7.01975448,11.6581702 7.21429408,11.4684597 L7.9493209,10.7516786 C8.1438605,10.5619681 8.45927152,10.5619681 8.65381112,10.7516786 Z M14.0750341,4.02554926 C14.1700659,4.05313428 14.2562711,4.10500261 14.3244531,4.17672529 L17.4193876,7.36611999 C17.5229412,7.47283414 17.5525486,7.63117292 17.4945519,7.76809496 L16.3521671,10.465106 C16.3075918,10.570342 16.3567671,10.6917881 16.4620031,10.7363634 C16.5226789,10.7620641 16.5919675,10.7573313 16.648585,10.7236188 L18.8014275,9.44172252 C18.9580015,9.3484915 19.1591462,9.38314731 19.2754925,9.52340059 L19.824657,10.1854078 C20.080453,10.493765 20.0450803,10.9495406 19.7447707,11.2147384 L15.2419116,15.19113 L10.0408804,10.1008505 C10.8928945,9.23732408 11.6272327,8.25187058 12.2438948,7.14448999 C12.7106069,6.30638457 13.08566,5.39611751 13.3690539,4.41368881 C13.456971,4.1116676 13.7729463,3.93786178 14.0750341,4.02554926 Z" id="Shape" fill="#FFFFFF"></path>
    </g>
</svg>